<svg width="136" height="134" viewBox="0 0 136 134" fill="none" xmlns="http://www.w3.org/2000/svg">
<path d="M123.701 109H33.2994C28.7158 109 25 114.596 25 121.5V121.5C25 128.404 28.7158 134 33.2994 134H123.701C128.284 134 132 128.404 132 121.5C132 114.596 128.284 109 123.701 109Z" fill="#7986CB"/>
<path d="M38.521 36H12.479C5.58702 36 0 41.5964 0 48.5V48.5C0 55.4036 5.58702 61 12.479 61H38.521C45.413 61 51 55.4036 51 48.5C51 41.5964 45.413 36 38.521 36Z" fill="#5EB0AB"/>
<path d="M31.3972 73H19.4499C13.1263 73 8 78.5964 8 85.5V85.5C8 92.4036 13.1263 98 19.4499 98H31.3972C37.7208 98 42.8472 92.4036 42.8472 85.5C42.8472 78.5964 37.7208 73 31.3972 73Z" fill="#FF8A65"/>
<path d="M63.5261 0.247925H32.4499C26.1263 0.247925 21 5.84436 21 12.7479V12.7479C21 19.6515 26.1263 25.2479 32.4499 25.2479H63.5261C69.8497 25.2479 74.976 19.6515 74.976 12.7479C74.976 5.84436 69.8497 0.247925 63.5261 0.247925Z" fill="#7986CB"/>
<path d="M126.384 0H94.0005C88.8596 0 84.6921 5.59644 84.6921 12.5V12.5C84.6921 19.4036 88.8596 25 94.0005 25H126.384C131.525 25 135.692 19.4036 135.692 12.5C135.692 5.59644 131.525 0 126.384 0Z" fill="#5EB0AB"/>
<path d="M67.5 98C74.4036 98 80 92.4036 80 85.5C80 78.5964 74.4036 73 67.5 73C60.5964 73 55 78.5964 55 85.5C55 92.4036 60.5964 98 67.5 98Z" fill="#7986CB"/>
</svg>
